<?xml version="1.0" standalone="no"?><!DOCTYPE svg PUBLIC "-//W3C//DTD SVG 1.1//EN" "http://www.w3.org/Graphics/SVG/1.1/DTD/svg11.dtd"><svg class="icon" width="180px" height="180.00px" viewBox="0 0 1024 1024" version="1.1" xmlns="http://www.w3.org/2000/svg"><path d="M78.5 379.5C187.4 301.1 281.1 196 359.6 64.3c88.6 27.9 134.2 43.1 136.7 45.6 0 5.1-5.1 13.9-15.2 26.6-7.6 5.1-12.7 10.1-15.2 15.2h315.3c-27.9 45.6-70.9 103.9-129.2 174.7h178.5v436.8H215.3V413.7l-38 30.4c-2.6-2.5-7.6-6.3-15.2-11.4-30.4-22.8-58.3-40.5-83.6-53.2z m26.6 543.2v-95h824.3v95H105.1z m395.1-596.3l64.6-79.8H386.2l-76 79.8h190z m-163.4 94.9v76h125.4v-76H336.8z m0 167.2v79.8h125.4v-79.8H336.8z m239.3-91.2h129.2v-76H576.1v76z m0 170.9h129.2v-79.8H576.1v79.8z" /></svg>